OpenSim_Sub07_CSBaseline_RCS.mot
version=1
nRows=75
nColumns=11
inDegrees=no
endheader
time	Top_Thigh	Med_Thigh	Bot_Thigh	Top_Shank	2nd_Top_Shank	2nd_Bot_Shank	Bot_Shank	BNOx	BNOy	BNOZ
0	2039.85667309	1871.67664475	1409.74159628	1278.67500530	1362.83415373	1209.47378077	1209.58493642	14.68391634	-74.55992034	170.74820073
0.01000000	2039.57969146	1871.92906284	1409.83080876	1279.57270411	1362.72648142	1209.57404826	1209.49833085	14.68350201	-74.55947624	170.73748709
0.02000000	2039.29551114	1872.16225018	1409.90339346	1280.45036022	1362.60620999	1209.67107036	1209.41064996	14.68344904	-74.55907469	170.72731396
0.03000000	2039.00948076	1872.37576759	1409.95870568	1281.29579959	1362.47798171	1209.76194389	1209.32269201	14.68381369	-74.55878734	170.71780790
0.04000000	2038.72694896	1872.56917586	1409.99610074	1282.09684820	1362.34643884	1209.84376571	1209.23525527	14.68465221	-74.55868581	170.70909546
0.05000000	2038.45326439	1872.74203580	1410.01493394	1282.84133199	1362.21622362	1209.91363266	1209.14913800	14.68602088	-74.55884176	170.70130321
0.06000000	2038.19377567	1872.89390822	1410.01456061	1283.51707695	1362.09197831	1209.96864157	1209.06513845	14.68797594	-74.55932683	170.69455770
0.07000000	2037.95382321	1873.02435560	1409.99434074	1284.11193022	1361.97833795	1210.00589477	1208.98405392	14.69057355	-74.56021254	170.68898532
0.08000000	2037.73700064	1873.13329607	1409.95463033	1284.61822995	1361.87840556	1210.02365478	1208.90647763	14.69384823	-74.56154422	170.68467518
0.09000000	2037.54300431	1873.22144125	1409.89800751	1285.03833438	1361.79186610	1210.02277270	1208.83254748	14.69778616	-74.56330877	170.68163326
0.10000000	2037.37100326	1873.28961012	1409.82735111	1285.37595749	1361.71794201	1210.00444991	1208.76233973	14.70236700	-74.56548519	170.67985427
0.11000000	2037.22016650	1873.33862165	1409.74553994	1285.63481327	1361.65585574	1209.96988777	1208.69593067	14.70757040	-74.56805248	170.67933294
0.12000000	2037.08966307	1873.36929484	1409.65545281	1285.81861573	1361.60482976	1209.92028764	1208.63339657	14.71337603	-74.57098964	170.68006399
0.13000000	2036.97866200	1873.38244867	1409.55996854	1285.93107884	1361.56408651	1209.85685090	1208.57481371	14.71976354	-74.57427566	170.68204215
0.14000000	2036.88633231	1873.37890211	1409.46196594	1285.97591662	1361.53284845	1209.78077889	1208.52025838	14.72671258	-74.57788955	170.68526213
0.15000000	2036.81184303	1873.35947415	1409.36432384	1285.95684304	1361.51033803	1209.69327299	1208.46980685	14.73420282	-74.58181031	170.68971867
0.16000000	2036.75436318	1873.32498377	1409.26992104	1285.87757212	1361.49577770	1209.59553457	1208.42353540	14.74221390	-74.58601692	170.69540647
0.17000000	2036.71306181	1873.27624994	1409.18163637	1285.74181783	1361.48838992	1209.48876498	1208.38152030	14.75072549	-74.59048840	170.70232027
0.18000000	2036.68710793	1873.21409167	1409.10234863	1285.55329417	1361.48739715	1209.37416559	1208.34383784	14.75971724	-74.59520373	170.71045479
0.19000000	2036.67567057	1873.13932791	1409.03493664	1285.31571515	1361.49202182	1209.25293777	1208.31056430	14.76916882	-74.60014193	170.71980475
0.20000000	2036.67791876	1873.05277767	1408.98227923	1285.03279474	1361.50148641	1209.12628288	1208.28177595	14.77905986	-74.60528197	170.73036487
0.21000000	2036.69302153	1872.95525991	1408.94725520	1284.70824695	1361.51501336	1208.99540228	1208.25754907	14.78937004	-74.61060288	170.74212988
0.22000000	2036.72014790	1872.84759363	1408.93274336	1284.34578577	1361.53182512	1208.86149735	1208.23795994	14.80007901	-74.61608363	170.75509449
0.23000000	2036.75846691	1872.73059779	1408.94162255	1283.94912519	1361.55114415	1208.72576943	1208.22308484	14.81116642	-74.62170323	170.76925343
0.24000000	2036.80714758	1872.60509139	1408.97677156	1283.52197921	1361.57219291	1208.58941991	1208.21300005	14.82261194	-74.62744069	170.78460142
0.25000000	2036.86535894	1872.47189341	1409.04106923	1283.06806182	1361.59419384	1208.45365013	1208.20778185	14.83439521	-74.63327499	170.80113319
0.26000000	2036.93227002	1872.33182282	1409.13739435	1282.59108701	1361.61636940	1208.31966148	1208.20750651	14.84649590	-74.63918514	170.81884346
0.27000000	2037.00704984	1872.18569861	1409.26862575	1282.09476879	1361.63794204	1208.18865530	1208.21225031	14.85889366	-74.64515013	170.83772694
0.28000000	2037.08886744	1872.03433976	1409.43764225	1281.58282113	1361.65813422	1208.06183298	1208.22208954	14.87156815	-74.65114897	170.85777837
0.29000000	2037.17689183	1871.87856526	1409.64732266	1281.05895805	1361.67616839	1207.94039586	1208.23710046	14.88449903	-74.65716064	170.87899246
0.30000000	2037.27029206	1871.71919408	1409.90054579	1280.52689352	1361.69126700	1207.82554532	1208.25735937	14.89766594	-74.66316416	170.90136394
0.31000000	2037.36823715	1871.55704521	1410.20019046	1279.99034155	1361.70265251	1207.71848272	1208.28294253	14.91104856	-74.66913852	170.92488753
0.32000000	2037.46989611	1871.39293763	1410.54913548	1279.45301613	1361.70954736	1207.62040942	1208.31392624	14.92462653	-74.67506271	170.94955795
0.33000000	2037.57443800	1871.22769032	1410.95025968	1278.91863124	1361.71117402	1207.53252679	1208.35038675	14.93837951	-74.68091573	170.97536992
0.34000000	2037.68103182	1871.06212225	1411.40644187	1278.39090090	1361.70675494	1207.45603620	1208.39240036	14.95228716	-74.68667659	171.00231818
0.35000000	2037.78884661	1870.89705243	1411.92056086	1277.87353909	1361.69551257	1207.39213900	1208.44004334	14.96632913	-74.69232429	171.03039743
0.36000000	2037.89705140	1870.73329982	1412.49549546	1277.37025980	1361.67666936	1207.34203657	1208.49339198	14.98048508	-74.69783781	171.05960240
0.37000000	2038.00481521	1870.57168340	1413.13412450	1276.88477702	1361.64944777	1207.30693026	1208.55252254	14.99473467	-74.70319616	171.08992782
0.38000000	2038.11130707	1870.41302217	1413.83932679	1276.42080477	1361.61307026	1207.28802144	1208.61751131	15.00905756	-74.70837834	171.12136841
0.39000000	2038.21569602	1870.25813509	1414.61398115	1275.98205701	1361.56675926	1207.28651148	1208.68843456	15.02343340	-74.71336334	171.15391888
0.40000000	2038.31715107	1870.10784116	1415.46096638	1275.57224776	1361.50973724	1207.30360175	1208.76536859	15.03784184	-74.71813017	171.18757397
0.41000000	2038.41484126	1869.96295936	1416.38316131	1275.19509100	1361.44122666	1207.34049359	1208.84838965	15.05226255	-74.72265782	171.22232839
0.42000000	2038.50793561	1869.82430866	1417.38344476	1274.85430073	1361.36044996	1207.39838839	1208.93757404	15.06667518	-74.72692529	171.25817687
0.43000000	2038.59560316	1869.69270805	1418.46469553	1274.55359094	1361.26662960	1207.47848750	1209.03299803	15.08105939	-74.73091158	171.29511413
0.44000000	2038.67701292	1869.56897651	1419.62979244	1274.29667562	1361.15898802	1207.58199229	1209.13473790	15.09539483	-74.73459569	171.33313489
0.45000000	2038.75133393	1869.45393302	1420.88161432	1274.08726878	1361.03674770	1207.71010412	1209.24286993	15.10966116	-74.73795662	171.37223388
0.46000000	2038.81773522	1869.34839656	1422.22303997	1273.92908440	1360.89913107	1207.86402436	1209.35747039	15.12383804	-74.74097336	171.41240581
0.47000000	2038.87538581	1869.25318612	1423.65694820	1273.82583647	1360.74536060	1208.04495437	1209.47861557	15.13790512	-74.74362491	171.45364542
0.48000000	2038.92345473	1869.16912068	1425.18621785	1273.78123900	1360.57465873	1208.25409552	1209.60638174	15.15184207	-74.74589027	171.49594741
0.49000000	2038.96111101	1869.09701922	1426.81372771	1273.79900598	1360.38624792	1208.49264917	1209.74084519	15.16562853	-74.74774844	171.53930652
0.50000000	2038.98752368	1869.03770071	1428.54235661	1273.88285139	1360.17935062	1208.76181669	1209.88208219	15.17924416	-74.74917843	171.58371747
0.51000000	2039.00186877	1868.99198226	1430.37482363	1274.03646563	1359.95327860	1209.06277770	1210.03016578	15.19266800	-74.75015937	171.62916936
0.52000000	2039.00480673	1868.96027916	1432.27998445	1274.25853545	1359.72627675	1209.39210343	1210.18448421	15.20574715	-74.75070321	171.67446055
0.53000000	2039.00031000	1868.94211030	1434.15114102	1274.53658378	1359.55883232	1209.73608318	1210.34289779	15.21803436	-74.75089503	171.71573270
0.54000000	2038.99279913	1868.93687329	1435.87137238	1274.85662302	1359.51714822	1210.07961504	1210.50306011	15.22904253	-74.75082980	171.74876798
0.55000000	2038.98669468	1868.94396571	1437.32375757	1275.20466558	1359.66742736	1210.40759709	1210.66262476	15.23828458	-74.75060250	171.76934858
0.56000000	2038.98641721	1868.96278516	1438.39137564	1275.56672386	1360.07587265	1210.70492741	1210.81924530	15.24527343	-74.75030811	171.77325668
0.57000000	2038.99638727	1868.99272924	1438.95730562	1275.92881025	1360.80868699	1210.95650407	1210.97057534	15.24952199	-74.75004160	171.75627445
0.58000000	2039.02089593	1869.03352241	1438.92789747	1276.27952546	1361.91120563	1211.14806427	1211.11365393	15.25067111	-74.74983510	171.71482965
0.59000000	2039.06327714	1869.08730491	1438.38148785	1276.62659918	1363.27453868	1211.27154656	1211.24097846	15.24930718	-74.74925627	171.65012112
0.60000000	2039.12643591	1869.15729970	1437.47349833	1276.98633483	1364.72067210	1211.32166903	1211.34301072	15.24644040	-74.74766456	171.56548615
0.61000000	2039.21327521	1869.24673488	1436.35971410	1277.37507623	1366.07126579	1211.29316285	1211.41020291	15.24308294	-74.74441847	171.46427210
0.62000000	2039.32669802	1869.35883854	1435.19592035	1277.80916724	1367.14797965	1211.18075919	1211.43300720	15.24024699	-74.73887647	171.34982635
0.63000000	2039.46960732	1869.49683876	1434.13790228	1278.30495169	1367.77247358	1210.97918923	1211.40187580	15.23894474	-74.73039707	171.22549625
0.64000000	2039.64490608	1869.66396363	1433.34144508	1278.87877343	1367.76640749	1210.68318416	1211.30726089	15.24018836	-74.71833873	171.09462919
0.65000000	2039.85549727	1869.86344124	1432.96233394	1279.54697630	1366.95144127	1210.28747514	1211.13961466	15.24499005	-74.70205995	170.96057251
0.66000000	2040.10410665	1870.09841916	1433.15352880	1280.32510548	1365.15568991	1209.78744106	1210.89012570	15.25434567	-74.68098124	170.82664201
0.67000000	2040.38656983	1870.36891532	1433.95815820	1281.19765832	1362.45820968	1209.20364067	1210.57861001	15.26861673	-74.65693424	170.69492561
0.68000000	2040.68977196	1870.67088205	1435.27667578	1282.10879995	1359.26403845	1208.58934222	1210.26207165	15.28734071	-74.63488278	170.56591618
0.69000000	2041	1871	1437.00000000	1283.00000000	1356.00000000	1208	1210	15.31000000	-74.62000000	170.44000000
0.70000000	2041.30567235	1871.35217282	1439.03283093	1283.82234679	1353.01934184	1207.48089330	1209.84037454	15.33627940	-74.61641065	170.31714442
0.71000000	2041.60373309	1871.72419617	1441.33499519	1284.56540327	1350.38100638	1207.03660152	1209.78513518	15.36667335	-74.62404589	170.19564104
0.72000000	2041.89325775	1872.11308871	1443.88010101	1285.22835108	1348.07035977	1206.66152904	1209.82471191	15.40187869	-74.64178851	170.07336253
0.73000000	2042.17332184	1872.51586913	1446.64175665	1285.81037184	1346.07276817	1206.35008027	1209.94953475	15.44259225	-74.66852126	169.94818155
0.74000000	2042.44300087	1872.92955609	1449.59357035	1286.31064719	1344.37359772	1206.09665961	1210.15003370	15.48951087	-74.70312692	169.81797078
